<?xml version="1.0" encoding="utf-8"?>
<!-- Generator: Adobe Illustrator 22.0.1, SVG Export Plug-In . SVG Version: 6.00 Build 0)  -->
<svg version="1.1" id="Layer_1" xmlns="http://www.w3.org/2000/svg" xmlns:xlink="http://www.w3.org/1999/xlink" x="0px" y="0px"
	 viewBox="0 0 190.1 117.9" style="enable-background:new 0 0 190.1 117.9;" xml:space="preserve">
<style type="text/css">
	.st0{fill:#F3603C;}
	.st1{fill:#004F6D;}
	.st2{fill:#007CAD;}
</style>
<title>logo-coaching-bundle</title>
<path class="st0" d="M22.6,0.2C26.2-0.2,29.8,0,33.2,1c6.9,2.1,13.1,6,18.2,11.1c0.7,0.6,0.9,1.6,0.4,2.3c-0.5,0.7-1.6,0.8-2.3,0.3
	c-0.1-0.1-0.1-0.1-0.2-0.2c-2.9-2.9-6.1-5.3-9.7-7.3C35,4.6,29.7,2.8,24.4,3.3c-5.1,0.5-9.9,2.3-14.1,5.2c-2.7,1.7-5.2,3.7-7.4,6
	c-0.6,0.7-1.7,0.8-2.4,0.2c0,0,0,0,0,0c-0.7-0.7-0.6-1.7,0-2.4c0,0,0.1-0.1,0.1-0.1c2.9-2.9,6.1-5.4,9.7-7.4c2.2-1.3,4.6-2.4,7-3.2
	C19,0.9,20.8,0.4,22.6,0.2"/>
<path class="st1" d="M16.2,9.8c1.6-0.6,3.3-0.7,5-0.3c-0.1,0.9-0.2,1.8-0.4,2.6c-1-0.4-2.1-0.3-3.1,0.1c-0.8,0.6-1.2,1.5-1.1,2.5
	c0,1.4,0,2.8,0,4.3h3.5v2.6h-3.5v13h-3v-13h-3.4c0-0.9,0-1.7,0-2.6h3.4c0.1-2.1-0.2-4.3,0.4-6.4C14.3,11.4,15.1,10.4,16.2,9.8"/>
<path class="st1" d="M23,34.6c0-8.3,0-16.6,0-24.9h3c0,8.3,0,16.6,0,24.9H23z"/>
<path class="st1" d="M63.8,13.2c0.9-0.4,1.9,0.1,2.2,0.9c0,0.1,0,0.1,0.1,0.2c0.2,0.9-0.3,1.8-1.2,2c-0.9,0.2-1.8-0.3-2-1.2
	C62.7,14.3,63.1,13.5,63.8,13.2"/>
<path class="st1" d="M106.8,19.1c2-0.8,4.1-0.7,6.1,0.1c0.9,0.4,1.6,1.1,2.2,1.9c-0.8,0.6-1.6,1.2-2.3,1.8c-0.5-0.7-1.3-1.1-2.1-1.4
	c-1.1-0.3-2.2-0.1-3.2,0.5c-0.6,0.5-0.7,1.5-0.2,2.1c0,0,0.1,0.1,0.1,0.1c0.9,0.7,2,1.2,3.2,1.3c1.4,0.2,2.8,0.8,3.8,1.8
	c1,1.2,1.3,2.7,0.8,4.2c-0.5,1.6-1.9,2.8-3.6,3.2c-1.9,0.5-3.8,0.5-5.7-0.1c-1.2-0.4-2.3-1.2-3-2.3c0.8-0.6,1.5-1.2,2.3-1.8
	c0.8,0.9,1.9,1.6,3.1,1.8c1.1,0.2,2.3-0.1,3.2-0.7c0.7-0.5,0.8-1.5,0.2-2.2c0,0,0,0,0,0c-0.7-0.6-1.5-1-2.5-1.2
	c-1.6-0.4-3.3-0.7-4.6-1.8c-1-1.1-1.3-2.6-0.9-4C104.2,20.8,105.3,19.6,106.8,19.1"/>
<path class="st1" d="M45,19c1.3,0,2.6,0,3.8,0c1.2,1.8,2.5,3.7,3.8,5.5c1.2-1.8,2.5-3.6,3.7-5.5c1.2,0,2.4,0,3.6,0
	c-1.8,2.4-3.5,4.8-5.3,7.3c2.1,2.8,4.2,5.5,6.3,8.3h-3.8c-1.5-2.2-3-4.4-4.6-6.5c-1.5,2.2-3.1,4.3-4.6,6.5h-3.6
	c2.1-2.8,4.2-5.6,6.3-8.3L45,19"/>
<path class="st1" d="M63.1,19h3v16.6c0.1,1.4,0,2.8-0.4,4.2c-0.4,1.3-1.5,2.2-2.8,2.6c-1.2,0.3-2.4,0.2-3.5-0.1
	c0.1-0.9,0.2-1.8,0.3-2.8c0.8,0.3,1.7,0.3,2.5-0.1c0.6-0.7,0.9-1.6,0.8-2.5V19z"/>
<path class="st1" d="M34.7,27.8h10c0.1-1.5-0.1-3-0.5-4.4c-0.6-2-2.1-3.6-4.1-4.4c-1.3-0.5-2.6-0.6-4-0.5C34,18.8,32,20,30.7,21.7
	c-1.7,2.4-2.1,5.4-1.1,8.1c0.5,1.7,1.7,3.1,3.2,4c2,1.1,4.3,1.4,6.5,0.9c1.9-0.4,3.6-1.4,4.8-3l-2.2-1.7c-0.8,1.1-2,1.9-3.3,2.2
	c-1.6,0.3-3.2-0.1-4.5-1c-1-0.8-1.7-2-1.8-3.3C33.1,27.8,33.9,27.8,34.7,27.8 M32.2,25.4c0.1-1.2,0.6-2.3,1.5-3.1
	c1.8-1.6,4.4-1.8,6.4-0.4c1,0.9,1.5,2.2,1.5,3.5C38.4,25.4,35.3,25.4,32.2,25.4"/>
<path class="st1" d="M74.8,18.7c1.7-0.3,3.4-0.1,5,0.6c4.1,1.9,5.9,6.7,4,10.8c-1.1,2.4-3.4,4.2-6,4.7c-1.9,0.4-3.9,0.1-5.7-0.9
	c-2.3-1.2-3.8-3.5-4.1-6c-0.2-1.5,0-3,0.6-4.4C69.8,21,72.1,19.2,74.8,18.7 M75,21.6c-1.6,0.4-3,1.6-3.5,3.2c-0.7,2-0.3,4.2,1,5.8
	c2,2.1,5.3,2.2,7.4,0.2c0.2-0.2,0.3-0.3,0.5-0.5c1.5-2.2,1.4-5.2-0.3-7.3C78.8,21.6,76.8,21.1,75,21.6"/>
<path class="st1" d="M86.3,9.7h3c0,3.8,0,7.7,0,11.5c1.3-1.7,3.3-2.7,5.4-2.6c1.7-0.1,3.3,0.4,4.7,1.3c1.7,1.2,2.9,3.1,3.2,5.2
	c0.4,2.4-0.1,4.8-1.4,6.8c-1.2,1.7-3.1,2.8-5.1,3c-2.5,0.4-5.1-0.5-6.7-2.6v2.2h-3C86.3,26.3,86.3,18,86.3,9.7 M92.7,21.6
	c-1.2,0.4-2.3,1.2-2.9,2.4c-0.7,1.4-0.8,3-0.4,4.4c0.3,1.4,1.3,2.6,2.5,3.2c2.2,1.1,4.9,0.5,6.5-1.5c1.6-2.4,1.3-5.5-0.7-7.6
	C96.3,21.4,94.4,21.1,92.7,21.6"/>
<path class="st0" d="M72.3,38.2c0.7-0.4,1.6-0.2,2.1,0.4c2.1,2.1,4.4,4,6.9,5.7c3.4,2.3,7.2,4,11.2,5c3.4,0.8,6.9,0.8,10.2,0
	c2.9-0.7,5.7-1.8,8.3-3.3c3.5-2,6.7-4.4,9.5-7.2c0.4-0.5,1-0.7,1.6-0.7c0.8,0.1,1.4,0.7,1.4,1.6c-0.1,0.7-0.4,1.3-1,1.7
	c-4.6,4.5-10.1,8-16.1,10.2c-3.5,1.2-7.3,1.7-11,1.4c-5.9-0.5-11.5-3-16.4-6.3C76.5,45,74.1,43,72,40.8c-0.6-0.6-0.6-1.6,0-2.2
	C72,38.5,72.2,38.4,72.3,38.2"/>
<path class="st1" d="M176.7,31.8c-1.4,0-2.7,0.4-3.9,1.1l-13.4,7.8L146,32.9c-1.2-0.7-2.6-1.1-3.9-1.1c-4.3,0-7.8,3.4-7.8,7.7
	c0,0,0,0.1,0,0.1v12.6H150v-9.7l7.9,4.7c0.3,0.2,0.5,0.3,0.8,0.3s0.5,0.2,0.8,0.2l0,0c0.3,0,0.5,0,0.8-0.2c0.3,0,0.5-0.2,0.8-0.3
	l0,0l7.9-4.7v9.7h15.7V39.7c0-4.3-3.4-7.8-7.7-7.8C176.8,31.8,176.7,31.8,176.7,31.8z"/>
<circle class="st1" cx="176.6" cy="24" r="4.7"/>
<circle class="st1" cx="142.1" cy="24" r="4.7"/>
<path class="st1" d="M169.5,10.2v-5c0-0.9-0.7-1.6-1.6-1.7h-19.5c-0.9,0-1.6,0.8-1.6,1.7v13.4c0,0.9,0.7,1.6,1.6,1.7h3.2v3.8
	l4.2-3.8h1.2v-6.7c0-1.8,1.4-3.3,3.2-3.3H169.5z"/>
<path class="st0" d="M170.2,11.8h-9.9c-0.9,0-1.6,0.8-1.6,1.7v6.3c0,0.9,0.7,1.6,1.6,1.7h6.3l2.4,2.2v-2.2h1.2
	c0.9,0,1.6-0.7,1.6-1.6v-6.3C171.8,12.6,171.1,11.9,170.2,11.8C170.2,11.8,170.2,11.8,170.2,11.8z"/>
<path class="st2" d="M12.5,64.4c-1.2-0.1-2.3,0.5-2.9,1.4c-0.7,1.2-1.1,2.6-1,4c0,3.5,1.3,5.3,4,5.3c1.4-0.1,2.7-0.3,4-0.8v2.8
	c-1.4,0.6-2.9,0.8-4.4,0.8c-2,0.1-3.9-0.6-5.3-2.1c-1.3-1.7-2-3.8-1.8-6c0-1.5,0.3-3,0.9-4.3c0.6-1.2,1.5-2.2,2.6-2.8
	c1.2-0.7,2.6-1,3.9-1c1.6,0,3.2,0.4,4.6,1.1l-1.1,2.7c-0.6-0.3-1.2-0.5-1.8-0.8C13.7,64.5,13.1,64.4,12.5,64.4z"/>
<path class="st2" d="M27.4,77.7l-0.6-1.7h-0.1c-0.5,0.6-1,1.1-1.7,1.5c-0.7,0.3-1.5,0.4-2.3,0.4c-1,0.1-2-0.3-2.7-1
	c-0.7-0.8-1.1-1.8-1-2.8c-0.1-1.1,0.4-2.2,1.4-2.8c1.2-0.7,2.6-1,4.1-1l2.1-0.1v-0.5c0.1-0.9-0.6-1.7-1.5-1.8c-0.2,0-0.3,0-0.5,0
	c-1.2,0.1-2.3,0.4-3.4,0.9L20,66.5c1.4-0.7,3-1.1,4.6-1.1c1.3-0.1,2.7,0.3,3.7,1.1c0.9,0.8,1.4,2,1.3,3.2v8.1L27.4,77.7z M26.4,72.1
	h-1.3c-0.8,0-1.5,0.1-2.1,0.5c-0.5,0.3-0.7,0.9-0.7,1.4c0,0.9,0.5,1.4,1.6,1.4c0.7,0,1.4-0.2,1.9-0.6c0.5-0.5,0.7-1.1,0.7-1.8
	L26.4,72.1z"/>
<path class="st2" d="M39.9,65.4c0.4,0,0.7,0,1.1,0.1l-0.2,3.1c-0.3-0.1-0.7-0.1-1-0.1c-0.9-0.1-1.8,0.2-2.5,0.8
	c-0.6,0.6-0.9,1.4-0.9,2.3v6.2h-3.3V65.6h2.5l0.5,2h0.2c0.4-0.7,0.9-1.2,1.5-1.6C38.4,65.6,39.1,65.4,39.9,65.4z"/>
<path class="st2" d="M48.4,77.9c-1.7,0.1-3.3-0.5-4.6-1.6c-1.1-1.2-1.7-2.9-1.6-4.6c-0.1-1.7,0.4-3.4,1.5-4.7
	c1.1-1.1,2.6-1.7,4.2-1.7c1.5-0.1,2.9,0.4,4,1.5c1,1.1,1.5,2.5,1.4,4v1.6h-7.8c0,0.8,0.3,1.6,0.8,2.2c0.6,0.5,1.4,0.8,2.2,0.8
	c0.7,0,1.4-0.1,2.1-0.2c0.7-0.2,1.4-0.4,2-0.7V77c-0.6,0.3-1.2,0.5-1.8,0.6C50,77.8,49.2,77.9,48.4,77.9z M48,67.7
	c-0.6,0-1.2,0.2-1.7,0.7c-0.4,0.5-0.7,1.2-0.7,1.9h4.6c0-0.7-0.2-1.4-0.6-1.9C49.2,67.9,48.6,67.7,48,67.7z"/>
<path class="st2" d="M61.6,77.9c-1.7,0.1-3.3-0.5-4.6-1.6c-1.2-1.2-1.8-2.9-1.7-4.6c-0.1-1.7,0.4-3.4,1.5-4.7
	c1.1-1.1,2.6-1.7,4.2-1.7c1.5-0.1,2.9,0.4,4,1.5c1,1.1,1.5,2.5,1.4,4v1.6h-7.8c0,0.8,0.3,1.6,0.8,2.2c0.6,0.6,1.4,0.8,2.2,0.8
	c0.7,0,1.4-0.1,2.1-0.2c0.7-0.2,1.4-0.4,2-0.7V77c-0.6,0.3-1.2,0.5-1.9,0.6C63.2,77.8,62.4,77.9,61.6,77.9z M61.1,67.7
	c-0.6,0-1.2,0.2-1.7,0.7c-0.4,0.5-0.7,1.2-0.7,1.9h4.6c0-0.7-0.2-1.4-0.6-1.9C62.3,67.9,61.7,67.7,61.1,67.7z"/>
<path class="st2" d="M76,65.4c0.4,0,0.8,0,1.1,0.1l-0.2,3.1c-0.3-0.1-0.7-0.1-1-0.1c-0.9-0.1-1.8,0.2-2.5,0.8
	c-0.6,0.6-0.9,1.4-0.9,2.3v6.2h-3.3V65.6h2.5l0.5,2h0.2c0.4-0.7,0.9-1.2,1.5-1.6C74.5,65.6,75.2,65.3,76,65.4z"/>
<path class="st2" d="M92.1,64.4c-1.2-0.1-2.3,0.5-2.9,1.4c-0.8,1.2-1.1,2.6-1,4c0,3.5,1.3,5.3,4,5.3c1.4-0.1,2.7-0.3,4-0.8v2.8
	c-1.4,0.6-2.9,0.8-4.4,0.8c-2,0.1-3.9-0.6-5.3-2.1c-1.3-1.7-2-3.8-1.8-6c0-1.5,0.3-3,0.9-4.3c0.6-1.2,1.5-2.2,2.6-2.8
	c1.2-0.7,2.6-1,4-1c1.6,0,3.2,0.4,4.6,1.1l-1.1,2.7c-0.6-0.3-1.2-0.5-1.8-0.7C93.3,64.5,92.7,64.4,92.1,64.4z"/>
<path class="st2" d="M110.3,71.6c0.1,1.7-0.5,3.3-1.6,4.6c-1.1,1.2-2.7,1.8-4.3,1.7c-1.1,0-2.1-0.2-3.1-0.8c-0.9-0.5-1.6-1.3-2-2.2
	c-0.5-1-0.7-2.2-0.7-3.3c-0.1-1.7,0.4-3.3,1.6-4.6c1.2-1.1,2.7-1.7,4.4-1.7c1.1,0,2.1,0.2,3.1,0.8c0.9,0.5,1.6,1.3,2,2.2
	C110,69.3,110.3,70.5,110.3,71.6z M101.9,71.6c-0.1,0.9,0.1,1.9,0.6,2.7c0.8,1.1,2.4,1.2,3.4,0.4c0.1-0.1,0.3-0.2,0.4-0.4
	c0.4-0.8,0.6-1.8,0.6-2.7c0.1-0.9-0.1-1.9-0.6-2.7c-0.9-1.1-2.5-1.2-3.5-0.3c-0.1,0.1-0.2,0.2-0.3,0.3
	C102,69.8,101.8,70.7,101.9,71.6L101.9,71.6z"/>
<path class="st2" d="M120.7,77.7l-0.6-1.7h-0.1c-0.4,0.6-1,1.1-1.7,1.5c-0.7,0.3-1.5,0.4-2.3,0.4c-1,0.1-2-0.3-2.8-1
	c-0.7-0.8-1.1-1.8-1-2.8c-0.1-1.1,0.4-2.2,1.3-2.8c1.2-0.7,2.6-1,4.1-1l2.1-0.1v-0.5c0.1-0.9-0.6-1.7-1.5-1.8c-0.2,0-0.3,0-0.5,0
	c-1.2,0.1-2.4,0.4-3.4,0.9l-1.1-2.3c1.4-0.7,3-1.1,4.6-1.1c1.3-0.1,2.7,0.3,3.7,1.1c0.9,0.8,1.4,2,1.3,3.2v8.1L120.7,77.7z
	 M119.7,72.1h-1.3c-0.8,0-1.5,0.1-2.2,0.5c-0.5,0.3-0.7,0.9-0.7,1.4c0,0.9,0.5,1.4,1.6,1.4c0.7,0,1.3-0.2,1.8-0.7
	c0.5-0.5,0.7-1.1,0.7-1.8V72.1z"/>
<path class="st2" d="M131.3,77.9c-3.8,0-5.7-2.1-5.7-6.2c-0.1-1.7,0.4-3.4,1.5-4.7c1.2-1.1,2.8-1.7,4.4-1.6c1.3,0,2.6,0.3,3.8,0.8
	l-1,2.6c-0.5-0.2-1-0.4-1.4-0.5c-0.4-0.1-0.9-0.2-1.4-0.2c-1.7,0-2.6,1.2-2.6,3.7s0.9,3.6,2.6,3.6c0.6,0,1.2-0.1,1.8-0.3
	c0.6-0.2,1.1-0.5,1.6-0.8V77c-0.5,0.3-1.1,0.6-1.6,0.7C132.6,77.9,131.9,77.9,131.3,77.9z"/>
<path class="st2" d="M149,77.7h-3.3v-7.1c0-1.8-0.6-2.6-1.9-2.6c-0.8-0.1-1.6,0.3-2,1c-0.5,0.9-0.7,2-0.6,3.1v5.7h-3.3V60.8h3.3v3.4
	c0,0.3,0,0.9-0.1,1.9l-0.1,1h0.2c0.8-1.2,2.1-1.9,3.5-1.8c1.2-0.1,2.4,0.3,3.2,1.2c0.8,0.9,1.2,2.1,1.1,3.3V77.7z"/>
<path class="st2" d="M152.3,62.5c0-1.1,0.6-1.6,1.8-1.6s1.8,0.5,1.8,1.6c0,0.4-0.1,0.9-0.4,1.2c-0.4,0.3-0.9,0.5-1.4,0.4
	C152.8,64.1,152.3,63.5,152.3,62.5z M155.7,77.7h-3.3V65.6h3.3V77.7z"/>
<path class="st2" d="M170.3,77.7H167v-7.1c0.1-0.7-0.1-1.4-0.5-2c-0.3-0.5-0.9-0.7-1.5-0.7c-0.8-0.1-1.5,0.3-2,0.9
	c-0.5,0.9-0.7,2-0.6,3.1v5.7h-3.3V65.6h2.5l0.4,1.6h0.2c0.4-0.6,0.9-1,1.5-1.3c0.7-0.3,1.4-0.5,2.2-0.4c1.2-0.1,2.4,0.3,3.2,1.1
	c0.8,0.9,1.2,2.1,1.1,3.3L170.3,77.7z"/>
<path class="st2" d="M184.3,77.7c0.1,1.5-0.4,3-1.5,4c-1.3,1-2.9,1.5-4.6,1.3c-1.5,0-3.1-0.2-4.5-0.7v-2.7c1.5,0.6,3.1,0.9,4.7,0.9
	c1.7,0,2.6-0.9,2.6-2.8v-0.2l0.1-1.5H181c-0.7,1.2-2.1,1.9-3.4,1.8c-1.3,0-2.6-0.6-3.3-1.7c-0.9-1.4-1.3-3-1.2-4.6
	c-0.1-1.6,0.3-3.3,1.2-4.6c0.8-1.1,2.1-1.7,3.4-1.7c1.4,0,2.7,0.6,3.5,1.8h0.1l0.3-1.6h2.8L184.3,77.7z M178.8,75.3
	c0.7,0.1,1.4-0.2,1.9-0.8c0.4-0.7,0.6-1.6,0.6-2.5v-0.4c0.1-1-0.1-1.9-0.6-2.8c-0.5-0.6-1.2-0.9-1.9-0.8c-1.6,0-2.3,1.2-2.3,3.7
	c-0.1,0.9,0.1,1.9,0.6,2.7C177.4,75,178.1,75.4,178.8,75.3z"/>
<path class="st2" d="M16.3,97.7h-4.1l-1.2-1.2c-1.4,1-3,1.5-4.7,1.4c-1.5,0.1-3-0.3-4.2-1.2c-1-0.8-1.6-2-1.6-3.3
	c0-0.9,0.2-1.8,0.7-2.5c0.6-0.8,1.3-1.5,2.2-2c-0.5-0.5-0.9-1.1-1.2-1.7c-0.2-0.6-0.4-1.2-0.4-1.9c0-1,0.4-2,1.3-2.7
	c1-0.7,2.2-1.1,3.4-1c1.1-0.1,2.3,0.3,3.2,0.9c0.8,0.6,1.2,1.5,1.2,2.5c0,0.8-0.3,1.7-0.8,2.3c-0.7,0.8-1.5,1.5-2.4,2l3.1,3
	c0.6-1,1-2.1,1.3-3.3h3.5c-0.3,1-0.6,1.9-1.1,2.8c-0.4,0.9-0.9,1.7-1.6,2.5L16.3,97.7z M3.9,93.1c0,0.6,0.2,1.1,0.7,1.5
	c0.5,0.4,1.1,0.6,1.8,0.6c0.9,0,1.7-0.2,2.5-0.7l-3.6-3.6c-0.4,0.3-0.7,0.6-1,1C4,92.3,3.9,92.7,3.9,93.1z M7.8,85.4
	c0-0.3-0.1-0.7-0.4-0.9c-0.3-0.2-0.6-0.3-1-0.3c-0.4,0-0.8,0.1-1.2,0.3c-0.3,0.2-0.4,0.6-0.4,1c0.1,0.8,0.4,1.5,1,2.1
	c0.5-0.3,1-0.6,1.4-1C7.6,86.3,7.8,85.9,7.8,85.4z"/>
<path class="st2" d="M26.7,91.6v6.1h-3.4V81.8h4.6c1.7-0.1,3.4,0.3,4.8,1.2c1.7,1.5,2.1,4.1,0.8,6.1c-0.5,0.8-1.3,1.4-2.1,1.8
	l4.7,6.9h-3.7l-3.8-6.1H26.7z M26.7,88.9h1.1c0.8,0.1,1.6-0.1,2.4-0.5c0.5-0.4,0.8-1,0.8-1.7c0.1-0.6-0.2-1.2-0.8-1.6
	c-0.7-0.4-1.6-0.5-2.4-0.5h-1L26.7,88.9z"/>
<path class="st2" d="M42.9,97.9c-1.7,0.1-3.3-0.5-4.6-1.6c-1.2-1.2-1.8-2.9-1.7-4.6C36.5,90,37,88.3,38.1,87
	c1.1-1.1,2.6-1.7,4.2-1.7c1.5-0.1,2.9,0.4,4,1.5c1,1.1,1.5,2.5,1.5,4v1.6H40c0,0.8,0.3,1.6,0.8,2.2c0.6,0.6,1.4,0.8,2.2,0.8
	c0.7,0,1.4-0.1,2.1-0.2c0.7-0.2,1.4-0.4,2-0.7V97c-0.6,0.3-1.2,0.5-1.8,0.6C44.5,97.8,43.7,97.9,42.9,97.9z M42.4,87.7
	c-0.6,0-1.2,0.2-1.7,0.7c-0.4,0.5-0.7,1.2-0.7,1.9h4.6c0-0.7-0.2-1.4-0.6-1.9C43.6,87.9,43,87.7,42.4,87.7z"/>
<path class="st2" d="M58.6,94.1c0.1,1.1-0.4,2.2-1.3,2.8c-1.2,0.7-2.5,1.1-3.9,1c-0.8,0-1.5,0-2.2-0.2c-0.6-0.1-1.2-0.3-1.8-0.5
	v-2.7c0.7,0.3,1.4,0.5,2.1,0.7c0.7,0.2,1.3,0.3,2,0.3c1.2,0,1.8-0.3,1.8-1c0-0.2-0.1-0.5-0.2-0.6c-0.2-0.2-0.5-0.4-0.8-0.6
	c-0.4-0.2-0.9-0.5-1.6-0.7c-0.7-0.3-1.4-0.6-2.1-1.1c-0.4-0.3-0.7-0.7-1-1.1c-0.2-0.5-0.3-1-0.3-1.6c0-1,0.4-1.9,1.2-2.5
	c1.1-0.7,2.3-1,3.6-0.9c1.5,0,2.9,0.4,4.3,1l-1,2.4c-0.6-0.2-1.1-0.5-1.7-0.6c-0.5-0.2-1.1-0.3-1.7-0.3c-1,0-1.5,0.3-1.5,0.8
	c0,0.3,0.2,0.6,0.5,0.8c0.7,0.4,1.3,0.7,2.1,1c0.7,0.3,1.4,0.6,2.1,1.1c0.4,0.3,0.8,0.7,1,1.2C58.5,93.1,58.6,93.6,58.6,94.1z"/>
<path class="st2" d="M69.5,97.7L69,96.2h-0.2c-0.4,0.6-0.9,1-1.5,1.3c-0.7,0.3-1.5,0.5-2.2,0.5c-1.2,0.1-2.3-0.3-3.2-1.1
	c-0.8-0.9-1.2-2.1-1.1-3.3v-7.9h3.3v7.1c-0.1,0.7,0.1,1.4,0.5,2c0.4,0.5,0.9,0.7,1.5,0.7c0.8,0.1,1.5-0.3,2-0.9
	c0.5-0.9,0.7-2,0.6-3.1v-5.7H72v12.1L69.5,97.7z"/>
<path class="st2" d="M86,97.7h-3.3v-7.1c0.1-0.7-0.1-1.4-0.4-2c-0.3-0.4-0.8-0.7-1.4-0.7c-0.7-0.1-1.4,0.3-1.8,0.9
	c-0.5,1-0.7,2-0.6,3.1v5.7h-3.3V85.6h2.5l0.4,1.6h0.2c0.3-0.6,0.8-1,1.4-1.3c0.7-0.3,1.4-0.5,2.1-0.5c1.8,0,3,0.6,3.7,1.8h0.3
	c0.3-0.6,0.9-1,1.5-1.3c0.7-0.3,1.4-0.5,2.1-0.5c1.1-0.1,2.3,0.3,3.1,1.1c0.8,1,1.1,2.2,1,3.4v7.9h-3.3v-7.1c0.1-0.7-0.1-1.4-0.4-2
	c-0.3-0.5-0.8-0.7-1.4-0.7c-0.7,0-1.4,0.3-1.8,0.9c-0.5,0.8-0.7,1.8-0.6,2.8L86,97.7z"/>
<path class="st2" d="M102.1,97.9c-1.7,0.1-3.3-0.5-4.6-1.6c-1.2-1.2-1.8-2.9-1.7-4.6c-0.1-1.7,0.4-3.4,1.5-4.7
	c1.1-1.1,2.6-1.7,4.2-1.7c1.5-0.1,2.9,0.4,4,1.5c1,1.1,1.5,2.5,1.4,4v1.6h-7.8c0,0.8,0.3,1.6,0.8,2.2c0.6,0.6,1.4,0.8,2.2,0.8
	c0.7,0,1.4-0.1,2.1-0.2c0.7-0.2,1.4-0.4,2-0.7V97c-0.6,0.3-1.2,0.5-1.9,0.6C103.7,97.8,102.9,97.9,102.1,97.9z M101.6,87.7
	c-0.6,0-1.2,0.2-1.7,0.7c-0.4,0.5-0.7,1.2-0.7,1.9h4.6c0-0.7-0.2-1.4-0.6-1.9C102.9,87.9,102.2,87.7,101.6,87.7z"/>
<path class="st2" d="M118.5,91.6v6.1h-3.4V81.8h4.6c1.7-0.1,3.4,0.3,4.8,1.2c1.7,1.6,2.1,4.1,0.8,6.1c-0.5,0.8-1.3,1.4-2.2,1.8
	l4.7,6.9H124l-3.8-6.1H118.5z M118.5,88.9h1.1c0.8,0.1,1.6-0.1,2.3-0.5c0.5-0.4,0.8-1,0.8-1.7c0.1-0.6-0.2-1.2-0.8-1.6
	c-0.7-0.4-1.6-0.5-2.4-0.5h-1L118.5,88.9z"/>
<path class="st2" d="M134.6,97.9c-1.7,0.1-3.3-0.5-4.6-1.6c-1.2-1.2-1.8-2.9-1.6-4.6c-0.1-1.7,0.4-3.4,1.5-4.7
	c1.1-1.1,2.6-1.7,4.2-1.7c1.5-0.1,2.9,0.4,4,1.5c1,1.1,1.5,2.5,1.4,4v1.6h-7.8c0,0.8,0.3,1.6,0.8,2.2c0.6,0.6,1.4,0.8,2.2,0.8
	c0.7,0,1.4-0.1,2.1-0.2c0.7-0.2,1.4-0.4,2-0.7V97c-0.6,0.3-1.2,0.5-1.9,0.6C136.2,97.8,135.4,97.9,134.6,97.9z M134.2,87.7
	c-0.6,0-1.2,0.2-1.6,0.7c-0.4,0.5-0.7,1.2-0.7,1.9h4.6c0-0.7-0.2-1.4-0.6-1.9C135.4,87.9,134.8,87.7,134.2,87.7z"/>
<path class="st2" d="M144.6,97.7L140,85.6h3.5l2.3,6.9c0.2,0.8,0.4,1.6,0.5,2.5h0.1c0-0.8,0.2-1.7,0.5-2.5l2.3-6.9h3.5L148,97.7
	H144.6z"/>
<path class="st2" d="M153.9,82.5c0-1.1,0.6-1.6,1.8-1.6s1.8,0.5,1.8,1.6c0,0.4-0.1,0.9-0.4,1.2c-0.4,0.3-0.9,0.5-1.4,0.4
	C154.5,84.1,153.9,83.5,153.9,82.5z M157.3,97.7H154V85.6h3.3V97.7z"/>
<path class="st2" d="M165.9,97.9c-1.7,0.1-3.3-0.5-4.6-1.6c-1.2-1.2-1.8-2.9-1.6-4.6c-0.1-1.7,0.4-3.4,1.5-4.7
	c1.1-1.1,2.6-1.7,4.2-1.7c1.5-0.1,2.9,0.4,4,1.5c1,1.1,1.5,2.5,1.4,4v1.6h-7.8c0,0.8,0.3,1.6,0.8,2.2c0.6,0.6,1.4,0.8,2.2,0.8
	c0.7,0,1.4-0.1,2.1-0.2c0.7-0.2,1.4-0.4,2-0.7V97c-0.6,0.3-1.2,0.5-1.9,0.6C167.5,97.8,166.7,97.9,165.9,97.9z M165.5,87.7
	c-0.6,0-1.2,0.2-1.6,0.7c-0.4,0.5-0.7,1.2-0.7,1.9h4.6c0-0.7-0.2-1.4-0.6-1.9C166.7,87.9,166.1,87.7,165.5,87.7z"/>
<path class="st2" d="M183,97.7l-0.9-4.2l-1.2-5.4h-0.1l-2.2,9.6H175l-3.4-12.1h3.3l1.4,5.4c0.2,0.6,0.4,2,0.7,4h0.1
	c0.1-0.9,0.2-1.7,0.4-2.6l0.2-0.9l1.5-5.8h3.6l1.4,5.8c0.1,0.4,0.2,1,0.3,1.8s0.2,1.4,0.2,1.8h0.1c0.1-0.6,0.2-1.4,0.3-2.2
	s0.3-1.4,0.4-1.8l1.4-5.4h3.2l-3.5,12.1L183,97.7z"/>
<path class="st2" d="M57.9,101.8h4.9c1.7-0.1,3.4,0.2,4.9,1c1,0.6,1.6,1.8,1.5,3c0,0.8-0.2,1.6-0.7,2.3c-0.4,0.6-1.1,1-1.8,1.1v0.1
	c0.9,0.1,1.6,0.6,2.2,1.3c1.2,1.9,0.8,4.4-0.9,5.8c-1.2,0.9-2.7,1.3-4.3,1.2h-6V101.8z M61.3,108.1h2c0.7,0.1,1.4-0.1,2-0.4
	c0.4-0.3,0.7-0.9,0.6-1.4c0-0.5-0.2-1-0.7-1.3c-0.7-0.3-1.4-0.5-2.1-0.4h-1.8V108.1z M61.3,110.8v4.1h2.2c0.7,0,1.4-0.1,2-0.5
	c0.5-0.4,0.7-1,0.7-1.6c0-1.3-0.9-2-2.8-2L61.3,110.8z"/>
<path class="st2" d="M81.1,117.7l-0.4-1.6h-0.2c-0.4,0.6-0.9,1-1.5,1.3c-0.7,0.3-1.5,0.5-2.2,0.5c-1.2,0.1-2.3-0.3-3.2-1.1
	c-0.8-0.9-1.2-2.1-1.1-3.3v-7.9h3.3v7.1c-0.1,0.7,0.1,1.4,0.5,2c0.4,0.5,0.9,0.7,1.5,0.7c0.8,0.1,1.5-0.3,2-0.9
	c0.5-0.9,0.7-2,0.6-3.1v-5.7h3.3v12.1L81.1,117.7z"/>
<path class="st2" d="M98.3,117.7H95v-7.1c0.1-0.7-0.1-1.4-0.5-2c-0.4-0.5-0.9-0.7-1.5-0.7c-0.8-0.1-1.5,0.3-2,0.9
	c-0.5,0.9-0.7,2-0.6,3.1v5.7h-3.3v-12.1h2.5l0.4,1.6h0.2c0.4-0.6,0.9-1,1.5-1.3c0.7-0.3,1.4-0.5,2.2-0.4c1.2-0.1,2.3,0.3,3.2,1.1
	c0.8,0.9,1.2,2.1,1.1,3.3L98.3,117.7z"/>
<path class="st2" d="M105.6,117.9c-1.3,0-2.6-0.6-3.3-1.7c-1.6-2.9-1.6-6.4,0-9.2c0.8-1.1,2.1-1.7,3.4-1.7c1.4-0.1,2.7,0.6,3.5,1.8
	h0.1c-0.2-0.8-0.2-1.6-0.2-2.4v-3.9h3.3v16.9h-2.5l-0.6-1.6H109C108.3,117.3,107,118,105.6,117.9z M106.8,115.3
	c0.7,0.1,1.4-0.2,1.8-0.7c0.5-0.7,0.7-1.6,0.7-2.5v-0.4c0.1-1-0.1-1.9-0.6-2.8c-0.5-0.6-1.2-0.9-2-0.8c-0.7,0-1.4,0.3-1.7,0.9
	c-0.5,0.8-0.7,1.8-0.6,2.7c-0.1,0.9,0.2,1.9,0.6,2.7C105.3,115,106,115.3,106.8,115.3z"/>
<path class="st2" d="M119.1,117.7h-3.3v-16.9h3.3V117.7z"/>
<path class="st2" d="M128.1,117.9c-1.7,0.1-3.3-0.5-4.6-1.6c-1.2-1.2-1.8-2.9-1.7-4.6c-0.1-1.7,0.4-3.4,1.5-4.7
	c1.1-1.1,2.6-1.7,4.2-1.7c1.5-0.1,2.9,0.4,4,1.5c1,1.1,1.5,2.6,1.4,4.1v1.6h-7.8c0,0.8,0.3,1.6,0.8,2.2c0.6,0.5,1.4,0.8,2.2,0.8
	c0.7,0,1.4-0.1,2.1-0.2c0.7-0.2,1.4-0.4,2-0.7v2.6c-0.6,0.3-1.2,0.5-1.9,0.6C129.7,117.9,128.9,117.9,128.1,117.9z M127.6,107.7
	c-0.6,0-1.2,0.2-1.6,0.7c-0.4,0.5-0.7,1.2-0.7,1.9h4.6c0-0.7-0.2-1.4-0.6-1.9C128.8,107.9,128.2,107.7,127.6,107.7z"/>
</svg>
