<?xml version="1.0" encoding="utf-8"?>
<!-- Generator: Adobe Illustrator 22.0.1, SVG Export Plug-In . SVG Version: 6.00 Build 0)  -->
<svg version="1.1" id="Artwork" xmlns="http://www.w3.org/2000/svg" xmlns:xlink="http://www.w3.org/1999/xlink" x="0px" y="0px"
	 viewBox="0 0 488.1 241.8" style="enable-background:new 0 0 488.1 241.8;" xml:space="preserve">
<style type="text/css">
	.st0{fill:#D52B1E;}
	.st1{fill:#FFFFFF;}
	.st2{fill:#2CA01C;}
</style>
<g id="TurboTax_-_Clearspace__x26__Lockup">
	<g id="Cornerstone_Lockup">
		<g id="Wordmark">
			<path id="_xAE__2_" d="M432.6,224.8c0-1.1-0.9-1.5-1.9-1.5H429v5h0.9v-2.1h0.6l1.2,2.1h1.1l-1.3-2.2
				C432.1,226,432.6,225.6,432.6,224.8z M429.9,225.6v-1.4h0.8c0.5,0,1,0.1,1,0.7s-0.6,0.7-1.1,0.7
				C430.6,225.6,429.9,225.6,429.9,225.6z M430.7,221.5c-2.5,0-4.4,2-4.4,4.4c0,2.5,2,4.4,4.4,4.4s4.4-1.9,4.4-4.4
				S433.1,221.5,430.7,221.5z M430.7,229.6c-2.1,0-3.7-1.7-3.7-3.7c0-2.1,1.7-3.7,3.7-3.7c2.1,0,3.7,1.7,3.7,3.7
				C434.4,227.9,432.8,229.6,430.7,229.6z"/>
			<path id="turbotax" d="M237.1,190.5c-4.9,0-8.5,2.1-11.9,5.3H225v-25.6h-10.7v60h10.2v-5.5h0.2c2.4,4,7.2,6.6,12.2,6.6
				c11,0,19.4-8.7,19.4-20.6C256.3,199,248,190.5,237.1,190.5z M235,222.2c-6.4,0-10.3-5.7-10.3-11.3c0-5.5,3.9-11.5,10.3-11.5
				c6.9,0,10.4,5.9,10.4,11.3C245.4,216.4,241.6,222.2,235,222.2z M164.8,212.8c0,4.5-3,9.4-8.5,9.4c-4.3,0-6.5-3-6.5-9.3v-21.3
				h-10.7v24c0,8,4,15.8,14.6,15.8c5,0,9.2-4,11.4-6.9h0.2v5.8h10.2v-38.7h-10.7V212.8z M122.1,180.7h-10.5v10.8H105v8.5h6.5v17
				c0,6,1.5,14,12.9,14c2.2,0,5.1-0.5,6.8-1.1l-0.3-8.4c-1.1,0.4-2.7,0.8-4.7,0.8c-3.1,0-4.2-2.2-4.2-5.4v-16.8h9.3v-8.5H122
				L122.1,180.7L122.1,180.7z M195,197.5h-0.2v-6h-10.3v38.7h10.7v-20.6c0-0.1,0.5-9.4,9.7-9.4c0.8,0,2.1,0.1,3.3,0.4v-9.8
				c-0.7-0.2-2.4-0.3-3.1-0.3C201,190.5,197.4,193.9,195,197.5z M356.6,190.5c-6.1,0-12.4,2.5-16.6,6.4l5.5,6.1
				c2.5-2.5,6.8-4.1,10.3-4.1c3.8,0,7.7,1.9,7.7,6.5v0.6c-11.2,0-25.5,1.4-25.5,12.9c0,8.5,7.4,12.3,14.7,12.3
				c4.6,0,8.5-2.6,10.9-5.4h0.2v4.5h10.1v-23.4C373.9,200.7,371.7,190.5,356.6,190.5z M363.7,213.9c0,5.7-3.2,9.3-9.1,9.3
				c-2.2,0-6.1-0.7-6.1-4.1c0-3.7,4.7-6,13.8-6h1.4L363.7,213.9L363.7,213.9z M282.2,190.5c-12.2,0-21,8.5-21,20.3
				c0,12.2,9,20.7,21,20.7s21-8.6,21-20.7C303.1,199,294.3,190.5,282.2,190.5z M282.2,222.2c-7,0-10.1-5.9-10.1-11.5
				c0-5.4,3.2-11.3,10.1-11.3c7,0,10.1,5.9,10.1,11.3C292.3,216.3,289.1,222.2,282.2,222.2z M405.5,209.7l13.9-18.2H407l-8,11.1
				l-7.7-11.1h-12.9l14,18.2l-15.7,20.5h12.8l9.5-13.1l9.4,13.1h13.1L405.5,209.7z M323.5,180.7H313v10.8h-6.5v8.5h6.5v17
				c0,6,1.5,14,12.9,14c2.2,0,5.1-0.5,6.8-1.1l-0.3-8.4c-1.1,0.4-2.7,0.8-4.7,0.8c-3.1,0-4.2-2.2-4.2-5.4v-16.8h9.3v-8.5h-9.3
				L323.5,180.7L323.5,180.7z"/>
		</g>
		<g id="Icon_3_">
			<circle id="Circle_3_" class="st0" cx="49" cy="192.8" r="45"/>
			<path id="Check" class="st1" d="M39,209.3c-5.2-3.7-10.1-7.7-14.9-11.9c-1.7,3.8-3.3,7.8-4.7,11.8c7.6,6.4,17.7,13.8,24.7,18
				c9-23.4,23.1-38.6,36.6-49.3c-1.7-3.7-4.1-7-6.9-9.8C59.4,179,47.4,193.1,39,209.3z"/>
		</g>
		<path id="intuit_3_" d="M132.3,150c-2.9,0-5.2,1.8-6.1,3.7h-0.1v-3.2h-4.7v19.7h4.9v-10.8c0-2.6,1.5-5.3,4.6-5.3
			c3.2,0,3.7,2.9,3.7,5.2v10.9h4.9v-12.3C139.6,153.9,137.5,150,132.3,150z M111.5,170.2h4.9v-19.7h-4.9V170.2z M193,150.5v4.4h5.5
			v15.3h4.9v-15.3h5.5v-4.4H193z M201,147.9c1.6,0,3-1.3,3-3c0-1.7-1.3-3-3-3c-1.6,0-3,1.3-3,3C198,146.6,199.3,147.9,201,147.9z
			 M150.1,147.9c1.6,0,3-1.3,3-3c0-1.7-1.3-3-3-3c-1.6,0-3,1.3-3,3C147.1,146.6,148.4,147.9,150.1,147.9z M184.6,170.2h4.9v-19.7
			h-4.9V170.2z M174.7,161.4c0,2.6-1.5,5.3-4.6,5.3c-3.2,0-3.7-2.9-3.7-5.2v-11h-4.9v12.3c0,4,2.1,8,7.3,8c2.9,0,5.2-1.8,6.1-3.7
			h0.1v3.2h4.7v-19.8h-4.9v10.9H174.7z M142.1,154.9h5.5v15.3h4.9v-15.3h5.5v-4.4h-16v4.4H142.1z"/>
	</g>
</g>
<g id="QuickBooks_-_Clearspace__x26__Lockup">
	<g id="QuickBooks_Lockup">
		<g id="Wordmark_1_">
			<path id="_xAE__1_" d="M479.8,81.6c0-1-0.8-1.3-1.7-1.3h-1.6v4.5h0.8v-1.9h0.6l1.1,1.9h1l-1.2-2
				C479.4,82.7,479.8,82.3,479.8,81.6z M477.3,82.3V81h0.7c0.4,0,0.9,0.1,0.9,0.6c0,0.5-0.5,0.7-1,0.7H477.3z M478.1,78.6
				c-2.2,0-4,1.8-4,4s1.8,4,4,4s4-1.8,4-4S480.3,78.6,478.1,78.6z M478.1,86c-1.9,0-3.4-1.5-3.4-3.4c0-1.9,1.5-3.4,3.4-3.4
				c1.9,0,3.4,1.5,3.4,3.4C481.5,84.4,479.9,86,478.1,86z"/>
			<path id="quickbooks" d="M218.6,79.3c-5.9,0-8.9-5.3-8.9-10.4c0-5.1,3.2-10.1,8.6-10.1c2.5,0,5.7,1.3,6.9,3l6.2-6.2
				c-3-3.2-7.8-5.1-13.2-5.1c-10.9,0-18.7,7.8-18.7,18.5c0,10.9,7.8,18.5,19,18.5c5.3,0,10.2-1.6,13.1-4.7l-6.1-6.5
				C224.2,78,221.3,79.3,218.6,79.3z M183.7,86.5h9.7V51.5h-9.7V86.5z M166.1,70.7c0,4.1-2.7,8.6-7.7,8.6c-3.9,0-5.9-2.8-5.9-8.4
				V51.5h-9.7v21.8c0,7.2,3.6,14.3,13.3,14.3c4.6,0,8.4-3.6,10.3-6.2h0.1v5.3h9.3V51.5h-9.7V70.7z M125.3,55.9h-0.2
				c-1.4-1.5-5.1-5.4-11.1-5.4c-9.9,0-17.5,7.7-17.5,18.4c0,10.8,7,18.7,17,18.7c4.5,0,8.8-2.4,11.3-5.2h0.1v21.5h9.7V51.5h-9.3
				V55.9z M115.9,79.3c-6,0-9.4-5.2-9.4-10.4c0-4.9,3.1-10.3,9.4-10.3c5.8,0,9.3,5.4,9.3,10.4C125.3,74,121.8,79.3,115.9,79.3z
				 M336.6,50.5c-11,0-19,7.7-19,18.4c0,11,8.2,18.8,19,18.8c10.8,0,19-7.8,19-18.8C355.6,58.2,347.6,50.5,336.6,50.5z M336.6,79.3
				c-6.3,0-9.2-5.4-9.2-10.4c0-4.9,2.9-10.3,9.2-10.3c6.3,0,9.2,5.3,9.2,10.3C345.8,73.9,342.9,79.3,336.6,79.3z M457.7,64.9
				c-5-1.2-6.7-1.8-6.7-3.8c0-2.8,3.5-3.4,5.1-3.4c3,0,6.4,1.8,7.7,3.5l5.7-5.5c-2.6-3.3-7.8-5.3-13.3-5.3c-7,0-14.4,3.5-14.4,11.4
				c0,6.8,5.3,8.8,10.5,10c5.5,1.3,7.4,2.2,7.4,4.4c0,3.2-3.7,3.8-5,3.8c-3.2,0-6.8-1.8-8.8-4.2l-5.9,6c3.2,3.6,8.7,5.7,14.4,5.7
				c9.5,0,15.1-4.5,15.1-12C469.5,68.5,462.6,66.1,457.7,64.9z M439.4,51.5h-12.5L414.4,66h-0.2V32.1h-9.7v54.4h9.7V69.2h0.2
				l13,17.3h12.7l-15.1-19.2L439.4,51.5z M295.7,50.5c-4.4,0-7.7,1.9-10.8,4.8h-0.2V32.1h-9.7v54.4h9.3v-5h0.1
				c2.2,3.6,6.5,5.9,11,5.9c10,0,17.6-7.9,17.6-18.7C313.1,58.2,305.6,50.5,295.7,50.5z M293.8,79.3c-5.8,0-9.3-5.2-9.3-10.3
				c0-5,3.6-10.4,9.3-10.4c6.3,0,9.4,5.3,9.4,10.3C303.2,74,299.8,79.3,293.8,79.3z M271.5,51.5H259L246.4,66h-0.2V32.1h-9.7v54.4
				h9.7V69.2h0.2l13,17.3h12.7l-15.1-19.2L271.5,51.5z M379.2,50.5c-11,0-19,7.7-19,18.4c0,11,8.2,18.8,19,18.8
				c10.8,0,19-7.8,19-18.8C398.2,58.2,390.2,50.5,379.2,50.5z M379.2,79.3c-6.3,0-9.2-5.4-9.2-10.4c0-4.9,2.9-10.3,9.2-10.3
				c6.3,0,9.2,5.3,9.2,10.3C388.4,73.9,385.5,79.3,379.2,79.3z"/>
		</g>
		<g id="Icon_2_">
			<circle id="Circle_2_" class="st2" cx="44.8" cy="52.5" r="40.8"/>
			<path id="qb" class="st1" d="M15.3,52.5c0,8.8,7.1,15.9,15.9,15.9h2.3v-5.9h-2.3c-5.5,0-10-4.5-10-10c0-5.5,4.5-10,10-10h5.4
				c0,0,0,30.3,0,30.8c0,3.3,2.6,5.9,5.9,5.9V36.7c0,0-6.1,0-11.3,0C22.4,36.7,15.3,43.8,15.3,52.5z M58.4,36.7h-2.3v5.9h2.3
				c5.5,0,10,4.5,10,10s-4.5,10-10,10H53c0,0,0-30.3,0-30.8c0-3.3-2.6-5.9-5.9-5.9v42.6c0,0,6.1,0,11.3,0c8.8,0,15.9-7.1,15.9-15.9
				C74.3,43.8,67.2,36.7,58.4,36.7z"/>
		</g>
		<path id="intuit_2_" d="M136.5,21c1.5,0,2.7-1.2,2.7-2.7c0-1.5-1.2-2.7-2.7-2.7c-1.5,0-2.7,1.2-2.7,2.7
			C133.8,19.8,135,21,136.5,21z M120.4,22.8c-2.6,0-4.8,1.6-5.5,3.4h-0.1v-2.9h-4.2v17.9h4.5v-9.8c0-2.4,1.3-4.8,4.2-4.8
			c2.9,0,3.3,2.6,3.3,4.8v9.9h4.5V30.1C127,26.4,125,22.8,120.4,22.8z M101.5,41.2h4.5V23.4h-4.5V41.2z M182.7,21
			c1.5,0,2.7-1.2,2.7-2.7c0-1.5-1.2-2.7-2.7-2.7c-1.5,0-2.7,1.2-2.7,2.7C180,19.8,181.2,21,182.7,21z M175.4,23.3v4h5v13.9h4.5V27.3
			h5v-4H175.4z M167.8,41.2h4.5V23.4h-4.5V41.2z M129.2,27.3h5v13.9h4.5V27.3h5v-4h-14.5V27.3z M158.8,33.2c0,2.4-1.3,4.8-4.2,4.8
			c-2.9,0-3.3-2.6-3.3-4.8v-9.9h-4.5v11.2c0,3.6,1.9,7.2,6.6,7.2c2.6,0,4.8-1.6,5.5-3.4h0.1v2.9h4.2V23.4h-4.5V33.2z"/>
	</g>
</g>
<g>
	<path d="M241.3,122.4v-13h8.1v13h13v8.1h-13v13h-8.1v-13h-13v-8.1H241.3z"/>
</g>
</svg>
