<?xml version="1.0" encoding="utf-8"?>
<!-- Generator: Adobe Illustrator 24.2.3, SVG Export Plug-In . SVG Version: 6.00 Build 0)  -->
<svg version="1.1" id="Carbonite_Logo" xmlns="http://www.w3.org/2000/svg" xmlns:xlink="http://www.w3.org/1999/xlink" x="0px"
	 y="0px" viewBox="0 0 2022.7 231.2" style="enable-background:new 0 0 2022.7 231.2;" xml:space="preserve">
<style type="text/css">
	.st0{fill:#F2FFE7;}
	.st1{clip-path:url(#SVGID_2_);}
	.st2{fill:url(#SVGID_3_);}
	.st3{clip-path:url(#SVGID_5_);}
	.st4{fill:url(#SVGID_6_);}
	.st5{fill:url(#SVGID_7_);}
	.st6{fill:url(#SVGID_8_);}
	.st7{fill:url(#SVGID_9_);}
	.st8{fill:#485151;}
</style>
<path class="st0" d="M520.5,3.8c22.2,0,57.3,1.5,76.5,30.2c11.1,17.3,14.8,45.6,6.8,65.4c-6.2,15.1-14.8,24.7-32.1,32.1
	c11.1,10.2,15.3,21.6,21.8,35.4l26,60.1h-69.4l-19.7-46.3c-13.9-32.7-11.1-33-28.7-33h-13.6V227h-70V3.8H520.5z M488.1,102.1h9.9
	c16,0,29-1.2,35.5-10.5c4.3-5.9,5.9-17.3,2.5-24.3c-7.4-16-23.1-17-37.9-17h-9.9L488.1,102.1z"/>
<path class="st0" d="M719.4,3.8c21.9,0,63.5-0.6,78.6,34.2c6.8,15.4,7.6,39.7-4.7,55.8c-3.3,4.4-7.3,8.2-11.9,11.3
	c19.4,7.7,28.2,23,30.5,37.7c2.8,17.9,2,37.4-11.9,55.6c-23.1,29.9-61.8,28.6-83.4,28.6h-89.7V3.8H719.4z M705.3,92
	c17.6,0,22.8-1.8,29.6-12.3c3.1-4.9,2.5-16.3-1.2-21c-7.1-8.6-15.4-9.5-29-9.5h-7.7V92H705.3z M704.9,179.6
	c11.4,0,32.4,1.9,40.7-9.9c4.6-6.5,4.3-16.4,0.9-22.5c-7.7-13-28.4-10.8-40.1-10.8h-9.6v43.2H704.9z"/>
<rect x="1277.7" y="3.8" class="st0" width="70" height="223.2"/>
<polygon class="st0" points="1553.7,3.8 1553.7,58.3 1490.5,58.3 1490.5,227 1420.8,227 1420.8,58.3 1357.3,58.3 1357.3,3.8 "/>
<polygon class="st0" points="1721.2,3.8 1721.2,57.4 1633.3,57.4 1633.3,88.6 1714.4,88.6 1714.4,140.4 1632.8,140.4 1632.8,173.1 
	1723.7,173.1 1723.7,227 1563.3,227 1563.3,3.8 "/>
<path class="st0" d="M1049.5,93.4c-5.9-34.8-23.5-65.7-62-82.9c-11.3-5.3-27-8.9-39.2-9.9c-9.9-0.7-19.9-0.7-29.8,0
	c-12.2,0.9-27.9,4.6-39.2,9.9c-38.6,17.3-56.1,48.1-62,82.9c-1.2,7.3-1.7,14.7-1.6,22.1c-0.1,7.4,0.5,14.8,1.6,22.1
	c5.9,34.9,23.5,65.7,62,82.9c11.3,5.3,27,8.9,39.2,9.9c9.9,0.7,19.9,0.7,29.8,0c12.2-0.9,27.9-4.6,39.2-9.9
	c38.6-17.3,56.1-48.1,62-82.9c1.2-7.3,1.7-14.7,1.6-22.1C1051.2,108.1,1050.7,100.7,1049.5,93.4 M973,157.8
	c-8.9,15.5-24.8,21.8-39.7,21.8s-30.8-6.3-39.7-21.8c-6-10.7-8.8-26.5-8.4-42.4c-0.5-15.9,2.3-31.7,8.4-42.4
	c8.9-15.5,24.8-21.8,39.7-21.8s30.8,6.3,39.7,21.8c6,10.7,8.8,26.5,8.4,42.4C981.8,131.4,979,147.2,973,157.8"/>
<path class="st0" d="M330.5,3.8h-69.4l-81,223.2h69.4l12.9-41.9h66.6l13,41.9h69.4L330.5,3.8z M274.5,139.8L297,72.8l21.3,66.9
	L274.5,139.8z"/>
<path class="st0" d="M85.6,64.5c18.4-21.5,73.3-12.8,89.4-6.2V4.5c-25-4.4-61-6.7-87.5-1.6C52,9.8,20.5,31.5,7,69.7
	c-3.8,10.7-7.3,27.7-7,46.2c-0.3,18.5,3.2,35.1,7,45.9c14.2,40.1,38.8,60,80.5,66.8c26.6,4.6,62.5,2.8,87.5-1.6v-53.8
	c-17,7.4-67,11.1-86.9-6.5c-14.1-12.4-18-39.2-17.6-50.9C70.1,104.1,70,82.7,85.6,64.5"/>
<polygon class="st0" points="1204.2,3.8 1193.7,3.8 1193.7,115.6 1114.3,3.8 1058.7,3.8 1058.7,25.5 1058.7,227 1116.7,227 
	1128.1,227 1128.1,118.8 1205.7,227 1263.1,227 1263.1,205.3 1263.1,3.8 "/>
<g id="Dot">
	<g>
		<defs>
			<path id="SVGID_1_" d="M1869.2,9c-4.2,0-8.2,0.2-11.8,0.5c-11.8,0.9-27,4.3-37.9,9.2c-37.3,16-54.2,44.7-59.9,77.2
				c-4.9,28.7,0.3,70.8,32.1,100.1c33,30.1,84.3,31.6,114.4,24.1c36.7-9.8,60.8-27.8,73.7-66c10.3-31,7.8-73.7-16.1-104.1
				C1938.1,17.7,1897.7,8.9,1869.2,9L1869.2,9"/>
		</defs>
		<clipPath id="SVGID_2_">
			<use xlink:href="#SVGID_1_"  style="overflow:visible;"/>
		</clipPath>
		<g class="st1">
			
				<radialGradient id="SVGID_3_" cx="1374.4319" cy="-2023.105" r="6.4" gradientTransform="matrix(-17.96 0 0 26.95 26560.2188 54627.0625)" gradientUnits="userSpaceOnUse">
				<stop  offset="0" style="stop-color:#94BC42"/>
				<stop  offset="0.46" style="stop-color:#93BA42"/>
				<stop  offset="0.68" style="stop-color:#8DB241"/>
				<stop  offset="0.84" style="stop-color:#85A63F"/>
				<stop  offset="0.97" style="stop-color:#78943C"/>
				<stop  offset="1" style="stop-color:#758F3B"/>
			</radialGradient>
			<rect x="1754.7" y="9" class="st2" width="235.5" height="218.5"/>
		</g>
	</g>
	<g>
		<defs>
			<path id="SVGID_4_" d="M1869.2,9c-4.2,0-8.2,0.2-11.8,0.5c-11.8,0.9-27,4.3-37.9,9.2c-37.3,16-54.2,44.7-59.9,77.2
				c-4.9,28.7,0.3,70.8,32.1,100.1c33,30.1,84.3,31.6,114.4,24.1c36.7-9.8,60.8-27.8,73.7-66c10.3-31,7.8-73.7-16.1-104.1
				C1938.1,17.7,1897.7,8.9,1869.2,9L1869.2,9"/>
		</defs>
		<clipPath id="SVGID_5_">
			<use xlink:href="#SVGID_4_"  style="overflow:visible;"/>
		</clipPath>
		<g class="st3">
			
				<radialGradient id="SVGID_6_" cx="1060.8615" cy="-579.5869" r="519.2903" gradientTransform="matrix(0.27 0 0 0.27 1584.27 371.09)" gradientUnits="userSpaceOnUse">
				<stop  offset="0" style="stop-color:#FFFFFF"/>
				<stop  offset="3.000000e-02" style="stop-color:#FBFCF3"/>
				<stop  offset="0.21" style="stop-color:#DFE6A4"/>
				<stop  offset="0.3" style="stop-color:#D4DE85"/>
				<stop  offset="0.53" style="stop-color:#AAC657"/>
				<stop  offset="0.76" style="stop-color:#8EB43D;stop-opacity:0"/>
			</radialGradient>
			<path class="st4" d="M1763.3,129.8c38.8-31.5,121.5-38.4,171.7-21.7c62.2,19.9,77,49.2,68.3,83.8c-7.7,28.7-45,74.7-74.1,106.2
				c-28.7,30-52.6,35.2-72.4,30.5c-22.1-5.4-40.5-21.8-68.8-56.5c-8.5-10.1-19.3-24-26.7-34.9
				C1744.2,211.2,1715.8,167.6,1763.3,129.8"/>
			
				<linearGradient id="SVGID_7_" gradientUnits="userSpaceOnUse" x1="1871.8203" y1="-366.06" x2="1871.8203" y2="-449.65" gradientTransform="matrix(1 0 0 1 0 441.56)">
				<stop  offset="0" style="stop-color:#93B93D"/>
				<stop  offset="0.36" style="stop-color:#B8D17F"/>
				<stop  offset="1" style="stop-color:#FFFFFF"/>
			</linearGradient>
			<path class="st5" d="M1938.7,42.2c1.1,16.5-29,37.9-66.8,39c-37.8-1.1-67.9-22.6-66.8-39c1.3-17.9,28.8-33,66.8-32.9
				S1937.4,24.3,1938.7,42.2"/>
		</g>
	</g>
	
		<linearGradient id="SVGID_8_" gradientUnits="userSpaceOnUse" x1="1871.775" y1="6.1081" x2="1871.775" y2="229.25" gradientTransform="matrix(1 0 0 -1 0 234)">
		<stop  offset="0" style="stop-color:#4F4E51"/>
		<stop  offset="1" style="stop-color:#FFFFFF"/>
	</linearGradient>
	<path class="st6" d="M1797,189.8c-28.9-26.5-34.2-65.3-29.5-92.7c6.1-34.4,24.1-57.6,55.1-71c9.4-4.2,23.6-7.6,35.4-8.5
		c3.5-0.3,7.3-0.5,11.1-0.5c17.5,0,61.3,3.7,88.5,37.8c22.7,29,23.7,69.4,14.7,96.5c-11.2,33.1-30.9,50.6-67.8,60.4
		c-10.3,2.4-20.8,3.6-31.4,3.6C1855.1,215.4,1821.4,212.1,1797,189.8 M1869,4.8c-4.4,0-8.5,0.2-12.2,0.5c-12.2,0.9-28,4.5-39.3,9.6
		c-38.7,16.7-56.3,46.5-62.3,80.1c-5.1,29.8,0.3,73.6,33.4,104c23.6,21.5,56.2,28.9,84.4,28.9c11.6,0.1,23.1-1.3,34.4-3.9
		c38.1-10.1,63.2-28.9,76.6-68.5c10.7-32.2,8-76.5-16.7-108.1C1940.6,13.9,1898.7,4.8,1869,4.8L1869,4.8"/>
	
		<linearGradient id="SVGID_9_" gradientUnits="userSpaceOnUse" x1="1871.9215" y1="17.0275" x2="1871.9215" y2="218.45" gradientTransform="matrix(1 0 0 -1 0 234)">
		<stop  offset="0" style="stop-color:#DCDDDD"/>
		<stop  offset="1.000000e-02" style="stop-color:#D7D8D9"/>
		<stop  offset="0.11" style="stop-color:#BABBBC"/>
		<stop  offset="0.21" style="stop-color:#A2A3A4"/>
		<stop  offset="0.33" style="stop-color:#8F9192"/>
		<stop  offset="0.47" style="stop-color:#828486"/>
		<stop  offset="0.64" style="stop-color:#7A7C7E"/>
		<stop  offset="1" style="stop-color:#787A7C"/>
	</linearGradient>
	<path class="st7" d="M1798.1,188.6c-28.4-26.1-33.7-64.3-29.1-91.3c6-33.8,23.7-56.7,54.2-69.8c9.3-4.2,23.3-7.5,34.9-8.4
		c3.5-0.3,7.2-0.5,10.9-0.5c17.3,0,60.5,3.6,87.3,37.2c22.3,28.5,23.4,68.3,14.4,95c-11,32.6-30.3,49.8-66.7,59.4
		c-10.2,2.4-20.6,3.6-31,3.5C1855.5,213.8,1822.2,210.6,1798.1,188.6 M1858,16.1c-11.9,0.9-26.3,4.4-35.9,8.6
		c-31.5,13.6-49.8,37.2-56,72.1c-4.7,27.8,0.7,67.1,30,94c24.8,22.7,59,26.1,77.1,26.1c10.7,0.1,21.4-1.1,31.8-3.6
		c37.5-10,57.4-27.8,68.8-61.5c9.2-27.5,8.1-68.5-15-98c-27.6-34.6-71.9-38.4-89.7-38.4C1865.3,15.6,1861.5,15.7,1858,16.1"/>
</g>
<path class="st8" d="M2008.9,3.8c8.2,0,13.8,5.6,13.8,13.8s-5.6,13.8-13.8,13.8s-13.7-5.6-13.7-13.8S2000.8,3.8,2008.9,3.8z
	 M2009,29c6.5,0,11-4.7,11-11.4s-4.4-11.4-11-11.4s-11,4.7-11,11.4S2002.5,29,2009,29z M2007.8,18.7h-1.8v6.1h-2.1V10.2h5.9
	c2.3-0.1,4.2,1.7,4.3,3.9c0,0.1,0,0.2,0,0.4c0.2,2.2-1.5,4.1-3.7,4.3c-0.1,0-0.2,0-0.3,0l4.6,6.1h-2.3L2007.8,18.7z M2006,17h3.6
	c1.3,0,2.4-1,2.4-2.3c0-0.1,0-0.2,0-0.2c0.1-1.3-0.9-2.5-2.2-2.6c-0.1,0-0.1,0-0.2,0h-3.6V17z"/>
</svg>
